<svg xmlns="http://www.w3.org/2000/svg" width="1600" height="900" viewBox="0 0 1600 900" fill="none">
  <rect width="1600" height="900" fill="#F2F4F7"/>
  <rect x="80" y="100" width="1440" height="700" rx="48" fill="#FFFFFF" stroke="#D9E1EA" stroke-width="4"/>
  <text x="120" y="210" fill="#30443A" font-family="Arial, sans-serif" font-size="38" font-weight="700">BMW X5 xDrive40i</text>
  <text x="120" y="260" fill="#64748B" font-family="Arial, sans-serif" font-size="22">Premium family SUV</text>
  <path d="M220 585C220 500 289 431 374 431H911C1000 431 1072 410 1132 359L1204 298C1227 278 1257 267 1288 267H1361C1406 267 1442 303 1442 348V585H220Z" fill="#DDE4EB"/>
  <circle cx="463" cy="596" r="84" fill="#1E293B"/>
  <circle cx="463" cy="596" r="46" fill="#CBD5E1"/>
  <circle cx="1201" cy="596" r="84" fill="#1E293B"/>
  <circle cx="1201" cy="596" r="46" fill="#CBD5E1"/>
  <rect x="456" y="358" width="455" height="96" rx="26" fill="#AAB6C3"/>
  <rect x="928" y="350" width="175" height="87" rx="26" fill="#AAB6C3"/>
  <path d="M235 501H1443" stroke="#AAB6C3" stroke-width="16" stroke-linecap="round"/>
</svg>

