<svg xmlns="http://www.w3.org/2000/svg" width="1600" height="900" viewBox="0 0 1600 900" fill="none">
  <rect width="1600" height="900" fill="#EEF0F2"/>
  <rect x="80" y="100" width="1440" height="700" rx="48" fill="#FBFBFC" stroke="#D7DDE4" stroke-width="4"/>
  <text x="120" y="210" fill="#30443A" font-family="Arial, sans-serif" font-size="38" font-weight="700">Kia Sportage GT-Line</text>
  <text x="120" y="260" fill="#64748B" font-family="Arial, sans-serif" font-size="22">Compact hybrid SUV</text>
  <path d="M210 580C210 505 270 445 345 445H917C983 445 1042 428 1098 393L1204 327C1237 307 1276 296 1315 296H1372C1415 296 1450 331 1450 374V580H210Z" fill="#80878E"/>
  <circle cx="460" cy="596" r="83" fill="#1E293B"/>
  <circle cx="460" cy="596" r="44" fill="#D4DCE4"/>
  <circle cx="1208" cy="596" r="83" fill="#1E293B"/>
  <circle cx="1208" cy="596" r="44" fill="#D4DCE4"/>
  <rect x="451" y="366" width="454" height="90" rx="28" fill="#60676E"/>
  <rect x="928" y="356" width="177" height="81" rx="24" fill="#60676E"/>
  <path d="M1096 402H1201" stroke="#BA7D4A" stroke-width="9" stroke-linecap="round"/>
</svg>

