<svg xmlns="http://www.w3.org/2000/svg" width="1600" height="900" viewBox="0 0 1600 900" fill="none">
  <rect width="1600" height="900" fill="#F5EFE6"/>
  <rect x="80" y="100" width="1440" height="700" rx="48" fill="#FFF9F1" stroke="#E3D7C2" stroke-width="4"/>
  <text x="120" y="210" fill="#7A3E1C" font-family="Arial, sans-serif" font-size="38" font-weight="700">Mercedes-Benz C300 AMG Line</text>
  <text x="120" y="260" fill="#5C6875" font-family="Arial, sans-serif" font-size="22">Luxury sport sedan</text>
  <path d="M260 590C260 520 318 462 388 462H900C967 462 1042 420 1091 375L1162 311C1186 289 1218 276 1251 276H1322C1373 276 1414 317 1414 368V590H260Z" fill="#111827"/>
  <circle cx="470" cy="600" r="82" fill="#232F3E"/>
  <circle cx="470" cy="600" r="44" fill="#BFC7CF"/>
  <circle cx="1184" cy="600" r="82" fill="#232F3E"/>
  <circle cx="1184" cy="600" r="44" fill="#BFC7CF"/>
  <rect x="452" y="374" width="416" height="92" rx="26" fill="#1F2937"/>
  <rect x="888" y="365" width="158" height="82" rx="24" fill="#1F2937"/>
  <path d="M1024 406H1172" stroke="#BA7D4A" stroke-width="12" stroke-linecap="round"/>
</svg>

